<svg width="24" height="24" viewBox="0 0 24 24" fill="none" xmlns="http://www.w3.org/2000/svg">
<path d="M16 6C16 4.93913 15.5785 3.92172 14.8284 3.17157C14.0782 2.42142 13.0609 2 12 2C10.9391 2 9.92178 2.42142 9.17163 3.17157C8.42149 3.92172 8 4.93913 8 6V8C8 9.06087 8.42149 10.0783 9.17163 10.8284C9.92178 11.5786 10.9391 12 12 12C13.0609 12 14.0782 11.5786 14.8284 10.8284C15.5785 10.0783 16 9.06087 16 8V6Z" stroke="#44475C" stroke-width="2" stroke-miterlimit="10"/>
<path d="M3 22C4.52 17.88 8 15 12 15C16 15 19.48 17.88 21 22" stroke="#44475C" stroke-width="2" stroke-miterlimit="10"/>
</svg>
