<svg width="24" height="24" viewBox="0 0 24 24" fill="none" xmlns="http://www.w3.org/2000/svg">
<path d="M19.78 20.01H4.22018C3.62252 19.9995 3.05323 19.7526 2.63717 19.3234C2.2211 18.8942 1.99218 18.3177 2.0002 17.72V6.28998C1.99218 5.69228 2.2211 5.11577 2.63717 4.68658C3.05323 4.2574 3.62252 4.01053 4.22018 4H19.78C20.3776 4.01053 20.9469 4.2574 21.363 4.68658C21.7791 5.11577 22.0082 5.69228 22.0002 6.28998V17.72C22.0082 18.3177 21.7791 18.8942 21.363 19.3234C20.9469 19.7526 20.3776 19.9995 19.78 20.01V20.01Z" stroke="#44475C" stroke-width="2" stroke-miterlimit="10"/>
<path d="M2.00012 8L12.0001 12L22.0001 8" stroke="#44475C" stroke-width="2" stroke-linejoin="round"/>
</svg>
